<svg xmlns="http://www.w3.org/2000/svg" viewBox="0 0 200 118" enable-background="new 0 0 200 118"><path fill="#303D4A" d="M8.3 103.7l5.3-10.2h3l-7 12.8v5.9h-2.6v-5.9l-7-12.9h3l5.3 10.3zM29.2 107c0 1.5-.1 4.3-3.6 5.1-1 .2-1.8.3-2.6.3s-1.6-.1-2.6-.3c-3.5-.8-3.6-3.5-3.6-5.1v-3.1c0-1.6.1-4.3 3.6-5.1 1-.2 1.8-.3 2.6-.3s1.6.1 2.6.3c3.5.8 3.6 3.6 3.6 5.1v3.1zm-2.6-3.1c-.1-2.8-1.4-3.3-3.7-3.3-2.5 0-3.7.7-3.7 3.3v3.1c0 2.7 1.5 3.3 3.7 3.3 2.5 0 3.7-.7 3.7-3.3v-3.1zM35.5 99.9c1.6-.6 3.4-1.4 5.2-1.5v2.5c-1 .1-3.5.3-5.1.9v10.3h-2.5v-13.4h2l.4 1.2zM51.7 98.7h3.3l-5.4 5.5 5.6 7.9h-3l-4.2-6.5-1.7 1.7v4.8h-2.5v-18.7h2.5v11.1h.1l2.6-3 2.7-2.8zM57.5 109.4c1.4.6 3 .8 4.2.8 2 0 3.1-.3 3.1-1.6 0-1-.8-1.3-1.7-1.8l-2.5-1.2c-2-.9-2.7-1.8-2.7-3.7 0-2.3 1.7-3.4 5.5-3.4.6 0 2.2.1 3.4.5v2.2c-1-.3-2.9-.5-3.4-.5-2.1 0-3 .4-3 1.4 0 .9.5 1.1 1.3 1.5l2.8 1.3c1.8.8 2.9 2 2.9 3.8 0 2.7-2 3.7-5.6 3.7-1.3 0-2.7-.2-4.2-.7v-2.3zM73.4 112.1h-2.5v-18.7h2.5v5.4c.7-.2 1.7-.4 3.4-.4.8 0 1.6.1 2.5.3 3.3.8 3.4 3.5 3.4 5.1v8.3h-2.5v-8.3c0-2.7-1-3.3-3.4-3.3-1.4 0-2.7.1-3.4.4v11.2zM88.3 96.3c-1 0-1.5-.2-1.5-1.5v-.2c0-1.2.5-1.4 1.5-1.4s1.5.2 1.5 1.4v.2c0 1.3-.5 1.5-1.5 1.5zm-1.3 2.4h2.5v13.5h-2.5v-13.5zM96.3 99.9c1.6-.6 3.4-1.4 5.2-1.5v2.5c-1 .1-3.5.3-5.1.9v10.3h-2.5v-13.4h2l.4 1.2zM106.4 106c0 2.7.8 3.7 2.4 4.1.5.1 1.1.2 1.8.2 1.4 0 3-.1 3.8-.3v2c-.9.2-2.3.4-3.8.4-.8 0-1.6-.1-2.4-.2-3.5-.8-4.3-2.6-4.3-6.7 0-5.9 2.3-7 6.1-7s6 1.5 5.4 7.5h-9zm6.6-1.9c.2-2.7-.6-3.7-3-3.7s-3.4.9-3.5 3.7h6.5z"/><path fill="#B8306A" d="M119.1 112.1v-18.7h7.3c5.7.1 8.4 2.1 8.4 7.6v3.5c0 5.6-3.1 7.6-8.4 7.6h-7.3zm7.3-3.3c3.2 0 4.4-1.2 4.4-4.3v-3.5c0-3.3-1.5-4.3-4.4-4.3h-3.3v12.1h3.3zM140.3 97.2c-1.4 0-2.1-.3-2.1-1.9v-.2c0-1.6.7-1.9 2.1-1.9 1.4 0 2.1.3 2.1 1.9v.2c0 1.6-.7 1.9-2.1 1.9zm-1.9 1.5h3.9v13.5h-3.9v-13.5zM150.9 112.4c-3.3-.1-5.3-1.7-5.3-5.5v-2.5c0-3.3 1.1-5.8 5.1-5.8 1 0 2.5.3 3.8 1l.2-.8h3.1v11.7c0 2.6 0 5.7-4.4 6.8-2.1.5-4.5.5-6.1.5h-1.1v-3.1c2.4 0 5 0 6.3-.5 1-.3 1.3-1.2 1.3-2.2-.7.2-1.7.4-2.9.4zm3.1-10.5c-.7-.2-1.6-.3-2.2-.3-1.8 0-2.3.7-2.3 2.4v2.8c0 1.9.7 2.4 2.3 2.4.9 0 1.5-.1 2.2-.3v-7zM163.6 97.2c-1.4 0-2.1-.3-2.1-1.9v-.2c0-1.6.7-1.9 2.1-1.9 1.4 0 2.1.3 2.1 1.9v.2c0 1.6-.7 1.9-2.1 1.9zm-2 1.5h3.9v13.5h-3.9v-13.5zM177.6 112.1c-1 .2-2 .3-2.7.3-2.7 0-4.6-1.3-4.7-4.2v-6.6h-1.9v-2.9h2l.6-3.3h3.2v3.3h3.5v2.9h-3.6v6.1c0 .9.4 1.5 1.3 1.5.5 0 1.3 0 2.2-.1v3zM180.1 104c0-1.6.1-4.4 3.7-5.2.9-.2 1.6-.3 2.5-.3 2 0 3.7.3 5.9.9v12.8h-3.1l-.2-.8c-1.3.7-2.7 1-3.7 1-4 0-5.1-2.4-5.1-5.6v-2.8zm4 2.8c0 1.7.4 2.4 2.3 2.4.5 0 1.4-.2 2-.4v-7.1c-.7-.1-1.5-.2-2-.2-2 0-2.3.9-2.3 2.6v2.7zM196.1 93.4h3.9v18.7h-3.9v-18.7zM101.6 79.3l-6.7-6c.1.1.2.3.2.4l6.4 9.7 6.4-9.7c.1-.1.2-.3.2-.4l-6.5 6zM138.6 52.4l-7.8 4.5.4-.1 11.2-3.1-7.3-9.1-.3-.3 3.8 8.1zM124.5 8.8l1.9 8.8v-.5l.5-11.6-10.9 4.1-.4.2 8.9-1zM78.7 8.8l8.9 1-.4-.2-10.9-4.1.5 11.6v.5l1.9-8.8zM64.6 52.4l3.7-8.2-.3.3-7.3 9.1 11.2 3.1.4.1-7.7-4.4z"/><path fill="#303D4A" d="M116.5 7.8c-.9-4.6-5-7.8-9.6-7.8h-10.6c-4.8 0-8.9 3.4-9.7 8.2-.6 3.5 0 7.1 1.8 10.3l13.1 21 13.1-21c2-3.3 2.6-7.1 1.9-10.7zm-14.9 23.5l-11-15.4c-1.5-2.3-2-5-1.5-7.6.7-3.5 4.1-6 8.1-6h8.8c3.9 0 7.3 2.4 8.1 5.8.6 2.6.1 5.4-1.5 7.8l-11 15.4zM75.2 16.2c-4.6-.6-9 2.3-10.4 6.7l-3.2 10c-1.5 4.5.5 9.5 4.8 11.8 3.1 1.6 6.8 2.2 10.4 1.4l24-6-15.9-19c-2.6-2.8-6-4.5-9.7-4.9zm17.7 21.4l-18.1 5.7c-2.7.7-5.4.4-7.7-.9-3.1-1.7-4.4-5.8-3.2-9.6l2.7-8.4c1.2-3.7 4.5-6.2 8-5.9 2.7.3 5.2 1.6 7 3.8l11.3 15.3zM70.4 58c-2 4.2-.6 9.3 3.2 12l8.5 6.2c3.9 2.8 9.2 2.4 12.7-.9 2.5-2.5 4.2-5.8 4.6-9.4l1.7-24.7-23 9.2c-3.4 1.5-6.2 4.2-7.7 7.6zm25.8-10.2l-.1 18.9c-.1 2.8-1.3 5.2-3.2 7-2.6 2.4-6.9 2.4-10.1.1l-7.1-5.2c-3.2-2.3-4.5-6.2-3.2-9.4 1.1-2.5 3.1-4.4 5.8-5.5l17.9-5.9zM108.7 75.5c3.4 3.2 8.7 3.4 12.4.7l8.5-6.2c3.9-2.8 5.2-8 3-12.3-1.6-3.2-4.2-5.8-7.5-7.3l-23-9.2 1.7 24.7c.4 3.7 2.2 7.1 4.9 9.6zm-1.8-27.8l18 6c2.6 1 4.6 2.8 5.7 5.2 1.5 3.2.2 7.3-3.1 9.7l-7.1 5.2c-3.2 2.3-7.3 2.4-9.9.1-2-1.8-3.3-4.3-3.4-7.2l-.2-19zM137.1 44.5c4.1-2.3 5.9-7.2 4.5-11.6l-3.2-10c-1.5-4.5-6-7.4-10.8-6.7-3.5.5-6.8 2.2-9.2 4.9l-15.9 19 24 6c3.6.8 7.4.2 10.6-1.6zm-26.9-6.9l11.2-15.2c1.7-2.2 4.1-3.5 6.7-3.8 3.5-.4 7 2.1 8.2 5.9l2.7 8.4c1.2 3.7 0 7.7-3 9.5-2.3 1.4-5.1 1.8-7.9 1l-17.9-5.8z"/></svg>