<?xml version="1.0" encoding="utf-8"?>
<!-- Generator: Adobe Illustrator 18.0.0, SVG Export Plug-In . SVG Version: 6.00 Build 0)  -->
<!DOCTYPE svg PUBLIC "-//W3C//DTD SVG 1.1//EN" "http://www.w3.org/Graphics/SVG/1.1/DTD/svg11.dtd">
<svg version="1.1" id="Layer_1" xmlns="http://www.w3.org/2000/svg" xmlns:xlink="http://www.w3.org/1999/xlink" x="0px" y="0px"
	 viewBox="0 245.6 595.3 350.6" enable-background="new 0 245.6 595.3 350.6" xml:space="preserve">
<path fill="#FFFFFF" d="M24.6,554.2l15.7-30.4h8.9l-20.8,38.1v17.5h-7.5v-17.5L0,523.6h8.9L24.6,554.2L24.6,554.2z M86.9,564.1
	c0,4.4-0.2,12.7-10.7,15.3c-3,0.6-5.4,1-7.7,1c-2.4,0-4.8-0.2-7.7-1C50.4,577,50,569.1,50,564.1V555c0-4.8,0.2-12.7,10.7-15.3
	c3-0.6,5.4-1,7.7-1c2.4,0,4.8,0.2,7.7,1c10.3,2.4,10.7,10.7,10.7,15.3V564.1z M79.2,554.8c-0.2-8.3-4.2-9.9-11.1-9.9
	c-7.3,0-11.1,2-11.1,9.9v9.1c0,8.1,4.4,9.9,11.1,9.9c7.3,0,11.1-2,11.1-9.9V554.8z M105.6,542.9c4.8-1.8,10.1-4.2,15.5-4.4v7.3
	c-3,0.2-10.3,1-15.3,2.8v30.8h-7.3v-39.9h6L105.6,542.9L105.6,542.9z M153.8,539.5h9.9L147.6,556l16.7,23.6h-8.9l-12.5-19.4
	l-5.2,5.2v14.3h-7.3V524h7.3V557h0.2l7.7-8.9C145.8,547.8,153.8,539.5,153.8,539.5z M171,571.3c4.2,1.8,8.9,2.4,12.5,2.4
	c6,0,9.1-1,9.1-4.8c0-3-2.4-4-5.2-5.4l-7.3-3.6c-6-2.8-8.1-5.4-8.1-11.1c0-6.9,5.2-10.1,16.5-10.1c1.8,0,6.5,0.2,10.1,1.4v6.5
	c-3-1-8.5-1.4-10.1-1.4c-6.2,0-8.9,1.2-8.9,4.2c0,2.8,1.4,3.2,4,4.4l8.3,4c5.4,2.4,8.5,6,8.5,11.3c0,8.1-6,11.1-16.7,11.1
	c-4,0-8.1-0.6-12.5-2v-6.9H171L171,571.3z M218.5,579.4h-7.3v-55.6h7.3v16.1c2-0.6,5.2-1.2,10.1-1.2c2.4,0,4.8,0.2,7.3,1
	c9.9,2.4,10.1,10.3,10.1,15.3v24.6h-7.3V555c0-8.1-3-9.9-10.1-9.9c-4.2,0-8.1,0.2-10.1,1.2V579.4z M262.9,532.4
	c-3,0-4.4-0.6-4.4-4.4v-0.6c0-3.6,1.4-4.2,4.4-4.2s4.4,0.6,4.4,4.2v0.6C267.3,531.6,265.7,532.4,262.9,532.4z M258.9,539.5h7.3v40.1
	h-7.3V539.5z M286.7,542.9c4.8-1.8,10.1-4.2,15.5-4.4v7.3c-3,0.2-10.3,1-15.3,2.8v30.8h-7.3v-39.9h6L286.7,542.9L286.7,542.9z
	 M316.7,561.1c0,8.1,2.4,11.1,7.1,12.3c1.4,0.2,3.2,0.6,5.4,0.6c4.2,0,8.9-0.2,11.3-1v6c-2.8,0.6-6.9,1.2-11.3,1.2
	c-2.4,0-4.8-0.2-7.1-0.6c-10.3-2.4-12.7-7.7-12.7-19.8c0-17.5,6.9-20.8,18.3-20.8c11.3,0,17.9,4.4,16.1,22.4
	C343.5,561.1,316.7,561.1,316.7,561.1z M336.3,555.4c0.6-8.1-1.8-11.1-8.9-11.1s-10.1,2.8-10.3,11.1H336.3z"/>
<path opacity="0.85" fill="#FFFFFF" d="M376.2,569.5c9.5,0,13.1-3.6,13.1-12.7v-10.3c0-9.9-4.4-12.7-13.1-12.7h-9.9v35.9
	C366.5,569.5,376.2,569.5,376.2,569.5L376.2,569.5z M354.4,579.4v-55.6H376c17.1,0.2,25,6.2,25,22.6v10.3c0,16.7-9.1,22.6-25,22.6
	L354.4,579.4L354.4,579.4z M417.7,534.9c-4.2,0-6.2-1-6.2-5.8v-0.6c0-4.8,2-5.8,6.2-5.8c4.2,0,6.2,1,6.2,5.8v0.6
	C423.8,533.9,421.9,534.9,417.7,534.9z M411.9,539.5h11.5v40.1h-11.5V539.5z M449,580.2c-9.9-0.2-15.7-5.2-15.7-16.5v-7.3
	c0-9.9,3.2-17.3,15.3-17.3c3,0,7.3,1,11.3,3l0.6-2.4h9.1v34.9c0,7.7,0,17.1-13.1,20.2c-6.2,1.4-13.3,1.4-18.3,1.4h-3.2v-9.3
	c7.1,0,14.9,0,18.7-1.4c3-1,4-3.6,4-6.5C455.8,579.6,452.8,580.2,449,580.2L449,580.2z M458.4,548.8c-2-0.6-4.8-1-6.5-1
	c-5.4,0-6.9,2-6.9,7.1v8.3c0,5.8,2,7.1,6.9,7.1c2.8,0,4.4-0.2,6.5-1V548.8L458.4,548.8z M486.9,534.9c-4.2,0-6.2-1-6.2-5.8v-0.6
	c0-4.8,2-5.8,6.2-5.8c4.2,0,6.2,1,6.2,5.8v0.6C493.1,533.9,491.1,534.9,486.9,534.9z M481,539.5h11.5v40.1H481V539.5z M528.6,579.4
	c-3,0.6-6,1-8.1,1c-8.1,0-13.7-4-14.1-12.5v-19.6h-5.8v-8.5h6l1.8-9.9h9.5v9.9h10.3v8.5h-10.7v18.3c0,2.8,1.2,4.4,4,4.4
	c1.4,0,4,0,6.5-0.2v8.9h0.6L528.6,579.4z M536,555.2c0-4.8,0.2-13.1,11.1-15.5c2.8-0.6,4.8-1,7.3-1c6,0,11.1,1,17.5,2.8v38.1h-9.1
	l-0.6-2.4c-4,2-8.1,3-11.1,3c-11.9,0-15.3-7.1-15.3-16.7v-8.3H536z M548.1,563.5c0,5.2,1.2,7.1,6.9,7.1c1.4,0,4.2-0.6,6-1.2v-21.2
	c-2-0.2-4.4-0.6-6-0.6c-6,0-6.9,2.8-6.9,7.7V563.5z M583.8,523.6h11.5v55.6h-11.5V523.6z M302.4,481.6l-19.8-17.9
	c0.2,0.2,0.6,1,0.6,1.2l19,28.8l19-28.8c0.2-0.2,0.6-1,0.6-1.2C321.6,463.7,302.4,481.6,302.4,481.6L302.4,481.6z M412.5,401.6
	l-23.2,13.3l1.2-0.2l33.3-9.1l-21.6-27.2l-1-1L412.5,401.6L412.5,401.6z M370.7,271.8l5.8,26.2v-1.4l1.4-34.5l-32.5,12.1l-1.2,0.6
	L370.7,271.8L370.7,271.8z M234.3,271.8l26.6,3l-1.2-0.6l-32.5-12.3l1.4,34.5v1.4C228.6,298,234.3,271.8,234.3,271.8L234.3,271.8z
	 M192.3,401.6l11.1-24.4l-1,1l-21.8,27l33.3,9.1l1.2,0.2C215.1,414.7,192.3,401.6,192.3,401.6L192.3,401.6z"/>
<path fill="#FFFFFF" d="M346.7,268.9c-2.6-13.7-14.7-23.2-28.4-23.2h-31.5c-14.3,0-26.6,10.1-28.8,24.4c-1.8,10.3,0,21.2,5.4,30.8
	l38.9,62.5l38.9-62.5C347,290.9,348.8,279.6,346.7,268.9L346.7,268.9z M302.4,338.7l-32.7-45.8c-4.4-6.9-6-14.9-4.4-22.6
	c2-10.3,12.1-17.9,24.2-17.9h26c11.5,0,21.6,7.1,24.2,17.3c1.8,7.7,0.2,16.1-4.4,23.2C335.1,292.9,302.4,338.7,302.4,338.7z
	 M223.8,293.9c-13.7-1.8-26.8,6.9-31,19.8l-9.5,29.8c-4.4,13.3,1.4,28.4,14.3,35.1c9.1,4.8,20.2,6.5,31,4.2l71.4-17.9l-47.2-56.6
	C244.9,300,234.7,295,223.8,293.9L223.8,293.9z M276.6,357.5l-54,17.1c-8.1,2-16.1,1.2-22.8-2.8c-9.1-5.2-13.1-17.3-9.5-28.6l8.1-25
	c3.6-11.1,13.3-18.5,23.8-17.5c8.1,1,15.5,4.8,20.8,11.3L276.6,357.5z M209.5,418.3c-6,12.5-1.8,27.6,9.5,35.7l25.4,18.5
	c11.5,8.3,27.4,7.1,37.9-2.8c7.3-7.3,12.5-17.3,13.7-28l5.2-73.6l-68.5,27.4C222.2,400.2,214.1,408.1,209.5,418.3L209.5,418.3z
	 M286.3,387.9l-0.2,56.4c-0.2,8.3-4,15.5-9.5,20.8c-7.7,7.1-20.4,7.1-30,0.2l-21.2-15.5c-9.5-6.9-13.3-18.5-9.5-28
	c3.2-7.3,9.1-13.1,17.3-16.5C233,405.4,286.3,387.9,286.3,387.9L286.3,387.9z M323.6,470.3c10.1,9.5,25.8,10.1,36.9,2l25.4-18.5
	c11.5-8.3,15.5-23.8,8.9-36.7c-4.8-9.5-12.5-17.3-22.4-21.6L304,368.1l5.2,73.6C310.1,452.8,315.5,462.9,323.6,470.3L323.6,470.3z
	 M318.3,387.7l53.6,17.9c7.7,3,13.7,8.3,17.1,15.5c4.4,9.5,0.6,21.6-9.1,28.8l-21.2,15.5c-9.5,6.9-21.6,7.1-29.6,0.2
	c-6-5.4-9.9-12.7-10.1-21.4C318.9,444.3,318.3,387.7,318.3,387.7z M408,378c12.3-6.9,17.5-21.4,13.3-34.5l-9.5-29.8
	c-4.4-13.3-17.9-22-32.1-19.8c-10.3,1.4-20.2,6.5-27.4,14.5L305,364.9l71.4,17.9C387.1,385.1,398.4,383.5,408,378L408,378z
	 M328,357.5l33.3-45.2c5.2-6.5,12.3-10.3,19.8-11.3c10.3-1.2,20.8,6.2,24.4,17.5l8.1,25c3.6,11.1,0,22.8-8.9,28.4
	c-6.9,4.2-15.3,5.4-23.6,3L328,357.5L328,357.5z"/>
</svg>
