<svg xmlns="http://www.w3.org/2000/svg" viewBox="0 0 841.9 595.3" enable-background="new 0 0 841.9 595.3"><path fill="#fff" d="M34.9 485.8l22.3-42.9h12.6l-29.5 53.9v24.8h-10.8v-24.8l-29.5-54.4h12.6l22.3 43.4zm88 13.9c0 6.3-.4 18.1-15.2 21.5-4.2.8-7.6 1.3-10.9 1.3-3.4 0-6.7-.4-10.9-1.3-14.7-3.4-15.2-14.7-15.2-21.5v-13c0-6.7.4-18.1 15.2-21.5 4.2-.8 7.6-1.3 10.9-1.3 3.4 0 6.7.4 10.9 1.3 14.7 3.4 15.2 15.2 15.2 21.5v13zm-10.9-13.1c-.4-11.8-5.9-13.9-15.6-13.9-10.5 0-15.6 2.9-15.6 13.9v13c0 11.4 6.3 13.9 15.6 13.9 10.5 0 15.6-2.9 15.6-13.9v-13zm37.4-16.8c6.7-2.5 14.3-5.9 21.9-6.3v10.5c-4.2.4-14.7 1.3-21.5 3.8v43.4h-10.5v-56.4h8.4l1.7 5zm68.2-5h13.9l-22.7 23.2 23.6 33.3h-12.6l-17.7-27.4-7.2 7.2v20.2h-10.5v-78.7h10.5v46.7h.4l10.9-12.6 11.4-11.9zm24.4 45c5.9 2.5 12.6 3.4 17.7 3.4 8.4 0 13-1.3 13-6.7 0-4.2-3.4-5.5-7.2-7.6l-10.5-5.1c-8.4-3.8-11.4-7.6-11.4-15.6 0-9.7 7.2-14.3 23.2-14.3 2.5 0 9.3.4 14.3 2.1v9.3c-4.2-1.3-12.2-2.1-14.3-2.1-8.8 0-12.6 1.7-12.6 5.9 0 3.8 2.1 4.6 5.5 6.3l11.8 5.5c7.6 3.4 12.2 8.4 12.2 16 0 11.4-8.4 15.6-23.6 15.6-5.5 0-11.4-.8-17.7-2.9v-9.7l-.4-.1zm67 11.4h-10.5v-78.7h10.5v22.7c2.9-.8 7.2-1.7 14.3-1.7 3.4 0 6.7.4 10.5 1.3 13.9 3.4 14.3 14.7 14.3 21.5v34.9h-10.5v-34.9c0-11.4-4.2-13.9-14.3-13.9-5.9 0-11.4.4-14.3 1.7v47.1zm62.7-66.5c-4.2 0-6.3-.8-6.3-6.3v-.8c0-5.1 2.1-5.9 6.3-5.9 4.2 0 6.3.8 6.3 5.9v.8c0 5.4-2.1 6.3-6.3 6.3zm-5.5 10.1h10.5v56.8h-10.5v-56.8zm39.2 5c6.7-2.5 14.3-5.9 21.9-6.3v10.5c-4.2.4-14.7 1.3-21.5 3.8v43.4h-10.5v-56.4h8.4l1.7 5zm42.5 25.7c0 11.4 3.4 15.6 10.1 17.3 2.1.4 4.6.8 7.6.8 5.9 0 12.6-.4 16-1.3v8.4c-3.8.8-9.7 1.7-16 1.7-3.4 0-6.7-.4-10.1-.8-14.7-3.4-18.1-10.9-18.1-28.2 0-24.8 9.7-29.5 25.7-29.5s25.3 6.3 22.7 31.6h-37.9zm27.8-8c.8-11.4-2.5-15.6-12.6-15.6s-14.3 3.8-14.7 15.6h27.3z"/><path fill="#B8306A" d="M501.3 521.2v-78.7h30.7c24 .4 35.4 8.8 35.4 32v14.7c0 23.6-13 32-35.4 32h-30.7zm30.8-13.9c13.5 0 18.5-5.1 18.5-18.1v-14.7c0-13.9-6.3-18.1-18.5-18.1h-13.9v50.9h13.9zm58.5-48.9c-5.9 0-8.8-1.3-8.8-8v-.8c0-6.7 2.9-8 8.8-8s8.8 1.3 8.8 8v.8c0 6.8-2.9 8-8.8 8zm-8 6.4h16.4v56.8h-16.4v-56.8zm52.6 57.6c-13.9-.4-22.3-7.2-22.3-23.2v-10.5c0-13.9 4.6-24.4 21.5-24.4 4.2 0 10.5 1.3 16 4.2l.8-3.4h13v49.3c0 10.9 0 24-18.5 28.6-8.8 2.1-18.9 2.1-25.7 2.1h-4.6v-13c10.1 0 21 0 26.5-2.1 4.2-1.3 5.5-5.1 5.5-9.3-2.9.9-7.1 1.7-12.2 1.7zm13.1-44.2c-2.9-.8-6.7-1.3-9.3-1.3-7.6 0-9.7 2.9-9.7 10.1v11.8c0 8 2.9 10.1 9.7 10.1 3.8 0 6.3-.4 9.3-1.3v-29.4zm40.4-19.8c-5.9 0-8.8-1.3-8.8-8v-.8c0-6.7 2.9-8 8.8-8s8.8 1.3 8.8 8v.8c0 6.8-2.9 8-8.8 8zm-8.5 6.4h16.4v56.8h-16.4v-56.8zm67.4 56.4c-4.2.8-8.4 1.3-11.4 1.3-11.4 0-19.4-5.5-19.8-17.7v-27.8h-8v-12.2h8.4l2.5-13.9h13.5v13.9h14.7v12.2h-15.2v25.7c0 3.8 1.7 6.3 5.5 6.3 2.1 0 5.5 0 9.3-.4v12.6h.5zm10.5-34.1c0-6.7.4-18.5 15.6-21.9 3.8-.8 6.7-1.3 10.5-1.3 8.4 0 15.6 1.3 24.8 3.8v53.9h-13l-.8-3.4c-5.5 2.9-11.4 4.2-15.6 4.2-16.8 0-21.5-10.1-21.5-23.6v-11.7zm16.9 11.8c0 7.2 1.7 10.1 9.7 10.1 2.1 0 5.9-.8 8.4-1.7v-29.9c-2.9-.4-6.3-.8-8.4-.8-8.4 0-9.7 3.8-9.7 10.9v11.4zm50.5-56.5h16.4v78.7h-16.4v-78.7zm-397.8-59.3l-28.2-25.3c.4.4.8 1.3.8 1.7l26.9 40.8 26.9-40.8c.4-.4.8-1.3.8-1.7l-27.2 25.3zm155.7-113.2l-32.8 18.9 1.7-.4 47.1-13-30.7-38.4-1.3-1.3 16 34.2zm-59.3-183.6l8 37v-2.1l2.1-48.8-45.9 17.3-1.7.8 37.5-4.2zm-192.8 0l37.5 4.2-1.7-.8-45.9-17.3 2.1 48.8v2.1l8-37zm-59.4 183.6l15.6-34.5-1.3 1.3-30.7 38.3 47.1 13 1.7.4-32.4-18.5z"/><path fill="#fff" d="M490.4 82.1c-3.8-19.4-21-32.8-40.4-32.8h-44.6c-20.2 0-37.5 14.3-40.8 34.5-2.5 14.7 0 29.9 7.6 43.4l55.1 88.4 55.1-88.4c8.4-13.9 10.9-29.9 8-45.1zm-62.7 98.9l-46.3-64.8c-6.3-9.7-8.4-21-6.3-32 2.9-14.7 17.2-25.2 34.1-25.2h37c16.4 0 30.7 10.1 34.1 24.4 2.5 10.9.4 22.7-6.3 32.8l-46.3 64.8zm-111.1-63.5c-19.4-2.5-37.9 9.7-43.8 28.2l-13.5 42.1c-6.3 18.9 2.1 40 20.2 49.7 13 6.7 28.6 9.3 43.8 5.9l101-25.3-66.9-80c-11-11.8-25.3-18.9-40.8-20.6zm74.5 90.1l-76.2 24c-11.4 2.9-22.7 1.7-32.4-3.8-13-7.2-18.5-24.4-13.5-40.4l11.4-35.4c5.1-15.6 18.9-26.1 33.7-24.8 11.4 1.3 21.9 6.7 29.5 16l47.5 64.4zm-94.8 85.8c-8.4 17.7-2.5 39.1 13.5 50.5l35.8 26.1c16.4 11.8 38.7 10.1 53.5-3.8 10.5-10.5 17.7-24.4 19.4-39.6l7.2-104-96.8 38.7c-14.5 6.5-26.2 17.8-32.6 32.1zm108.6-42.9l-.4 79.6c-.4 11.8-5.5 21.9-13.5 29.5-10.9 10.1-29 10.1-42.5.4l-29.9-21.9c-13.5-9.7-18.9-26.1-13.5-39.6 4.6-10.5 13-18.5 24.4-23.2l75.4-24.8zm52.7 116.6c14.3 13.5 36.6 14.3 52.2 2.9l35.8-26.1c16.4-11.8 21.9-33.7 12.6-51.8-6.7-13.5-17.7-24.4-31.6-30.7l-96.8-38.7 7.2 104c1.6 15.6 9.2 29.9 20.6 40.4zm-7.6-117l75.8 25.3c10.9 4.2 19.4 11.8 24 21.9 6.3 13.5.8 30.7-13 40.8l-29.9 21.9c-13.5 9.7-30.7 10.1-41.7.4-8.4-7.6-13.9-18.1-14.3-30.3l-.9-80zm127.1-13.5c17.3-9.7 24.8-30.3 18.9-48.8l-13.5-42.1c-6.3-18.9-25.3-31.1-45.5-28.2-14.7 2.1-28.6 9.3-38.7 20.6l-66.9 80 101 25.3c15.2 3.3 31.2.8 44.7-6.8zm-113.2-29l47.1-64c7.2-9.3 17.3-14.7 28.2-16 14.7-1.7 29.5 8.8 34.5 24.8l11.4 35.4c5.1 15.6 0 32.4-12.6 40-9.7 5.9-21.5 7.6-33.3 4.2l-75.3-24.4z"/></svg>