<svg xmlns="http://www.w3.org/2000/svg" xmlns:xlink="http://www.w3.org/1999/xlink" width="40" height="40" viewBox="0 0 40 40"><path fill="#fff" d="M20 2c9.9 0 18 8.1 18 18s-8.1 18-18 18-18-8.1-18-18 8.1-18 18-18m0-2c-11 0-20 9-20 20s9 20 20 20 20-9 20-20-9-20-20-20z"/><defs><path id="a" d="M9.8 9.8h20.4v20.4h-20.4z"/></defs><clipPath id="b"><use xlink:href="#a" overflow="visible"/></clipPath><path clip-path="url(#b)" fill-rule="evenodd" clip-rule="evenodd" fill="#fff" d="M27.8 18.4h-1.8c.1.5.2 1 .2 1.6 0 3.5-2.8 6.3-6.3 6.3s-6.3-2.8-6.3-6.3c0-.5.1-1.1.2-1.6h-1.8v8.6c0 .4.4.8.8.8h14.2c.4 0 .8-.4.8-.8v-8.6zm0-5.5c0-.4-.4-.8-.8-.8h-2.3c-.4 0-.8.4-.8.8v2.3c0 .4.4.8.8.8h2.3c.4 0 .8-.4.8-.8v-2.3zm-7.8 3.2c-2.2 0-3.9 1.8-3.9 3.9 0 2.2 1.8 3.9 3.9 3.9 2.2 0 3.9-1.8 3.9-3.9 0-2.2-1.8-3.9-3.9-3.9m7.8 14.1h-15.6c-1.3 0-2.3-1.1-2.3-2.4v-15.6c0-1.3 1.1-2.3 2.3-2.3h15.7c1.3 0 2.3 1.1 2.3 2.3v15.7c0 1.2-1.1 2.3-2.4 2.3"/></svg>