<svg xmlns="http://www.w3.org/2000/svg" viewBox="0 0 300 177" enable-background="new 0 0 300 177"><path d="M12.5 155.7l8-15.3h4.5l-10.6 19.2v8.8h-3.9v-8.9l-10.5-19.1h4.5l8 15.3zm31.2 5c0 2.3-.1 6.5-5.4 7.7-1.5.3-2.7.4-3.9.4-1.3 0-2.4-.1-3.9-.4-5.3-1.2-5.4-5.3-5.4-7.7v-4.7c0-2.4.1-6.5 5.4-7.7 1.5-.3 2.6-.4 3.9-.4 1.2 0 2.4.1 3.9.4 5.2 1.2 5.4 5.4 5.4 7.7v4.7zm-3.7-4.7c-.1-4.2-2.1-4.9-5.5-4.9-3.8 0-5.5 1.1-5.5 4.9v4.7c0 4.1 2.2 4.9 5.5 4.9 3.8 0 5.5-1 5.5-4.9v-4.7zm13.2-5.9c2.4-.9 5.1-2 7.8-2.2v3.7c-1.5.1-5.3.4-7.6 1.3v15.5h-3.8v-20.2h3l.6 1.9zm24.4-1.8h5l-8.1 8.3 8.4 11.9h-4.5l-6.2-9.8-2.6 2.6v7.3h-3.8v-28h3.8v16.4h.2l3.9-4.5 3.9-4.2zm8.7 16c2 .9 4.5 1.2 6.3 1.2 3 0 4.7-.5 4.7-2.4 0-1.5-1.2-2-2.6-2.7l-3.8-1.8c-3-1.4-4.1-2.7-4.1-5.6 0-3.4 2.5-5.1 8.3-5.1.9 0 3.3.1 5.1.7v3.2c-1.5-.5-4.3-.7-5.1-.7-3.1 0-4.5.6-4.5 2.1 0 1.3.7 1.7 1.9 2.2l4.2 2c2.8 1.3 4.4 3 4.4 5.8 0 4.1-3 5.6-8.4 5.6-1.9 0-4.1-.4-6.3-1.1v-3.4zm23.8 4.1h-3.8v-28h3.8v8.1c1.1-.3 2.6-.6 5.1-.6 1.2 0 2.4.1 3.8.4 5 1.2 5.1 5.3 5.1 7.7v12.4h-3.8v-12.4c0-4-1.5-4.9-5.1-4.9-2.1 0-4 .2-5.1.6v16.7zm22.3-23.6c-1.5 0-2.2-.4-2.2-2.2v-.3c0-1.8.7-2.2 2.2-2.2 1.5 0 2.2.4 2.2 2.2v.3c.1 1.8-.7 2.2-2.2 2.2zm-1.8 3.5h3.8v20.2h-3.8v-20.2zm13.9 1.8c2.4-.9 5.1-2 7.8-2.2v3.7c-1.5.1-5.3.4-7.6 1.3v15.5h-3.8v-20.2h3l.6 1.9zm15.2 9.1c0 4.1 1.1 5.6 3.6 6.1.7.2 1.7.2 2.7.2 2.1 0 4.5-.2 5.8-.5v3.1c-1.4.3-3.5.6-5.8.6-1.2 0-2.4-.1-3.5-.3-5.3-1.3-6.5-3.9-6.5-10 0-8.8 3.4-10.5 9.1-10.5 5.7 0 9.1 2.2 8 11.3h-13.4zm9.9-2.8c.3-4-.9-5.5-4.5-5.5s-5.1 1.4-5.3 5.5h9.8zm9.1 12v-28h11c8.5.1 12.6 3.1 12.6 11.3v5.3c0 8.5-4.6 11.3-12.6 11.3h-11zm11-4.9c4.8 0 6.6-1.8 6.6-6.4v-5.3c0-4.9-2.2-6.4-6.6-6.4h-4.9v18.2h4.9zm20.8-17.4c-2.1 0-3.2-.4-3.2-2.9v-.3c0-2.4 1.1-2.8 3.2-2.8s3.2.4 3.2 2.8v.3c0 2.5-1.1 2.9-3.2 2.9zm-2.9 2.2h5.8v20.2h-5.8v-20.2zm18.8 20.5c-5-.1-7.9-2.6-7.9-8.3v-3.8c0-4.9 1.6-8.7 7.6-8.7 1.5 0 3.7.5 5.7 1.5l.4-1.1h4.7v17.5c0 3.9 0 8.6-6.6 10.2-3.2.7-6.8.7-9.1.7h-1.7v-4.6c3.6 0 7.4 0 9.5-.7 1.5-.5 1.9-1.9 1.9-3.3-1.2.3-2.7.6-4.5.6zm4.6-15.7c-1.1-.2-2.4-.4-3.3-.4-2.8 0-3.5 1-3.5 3.6v4.3c0 2.9 1 3.6 3.5 3.6 1.3 0 2.3-.2 3.3-.4v-10.7zm14.4-7c-2.1 0-3.2-.4-3.2-2.9v-.3c0-2.4 1.1-2.8 3.2-2.8s3.2.4 3.2 2.8v.3c0 2.5-1.1 2.9-3.2 2.9zm-2.9 2.2h5.8v20.2h-5.8v-20.2zm23.9 20.1c-1.5.2-3 .4-4.1.4-4 0-6.9-2-7.1-6.3v-9.9h-2.8v-4.3h3l.9-5h4.8v5h5.3v4.3h-5.3v9.1c0 1.3.6 2.3 2 2.3.7 0 1.9 0 3.3-.2v4.6zm3.8-12.2c0-2.4.2-6.5 5.6-7.8 1.4-.3 2.4-.5 3.8-.5 3 0 5.6.4 8.8 1.3v19.2h-4.7l-.4-1.1c-2 1-4.1 1.5-5.6 1.5-6 0-7.6-3.5-7.6-8.5v-4.1zm5.9 4.2c0 2.6.7 3.6 3.5 3.6.7 0 2-.2 3-.6v-10.6c-1.1-.2-2.2-.2-3-.2-3 0-3.5 1.3-3.5 3.9v3.9zm18-20h5.9v28h-5.9v-28z" fill="#fff"/><path opacity=".85" fill="#fff" d="M152.4 119.1l-10-9c.1.2.2.4.4.6l9.6 14.6 9.6-14.6c.1-.2.2-.4.4-.6l-10 9zm55.5-40.3l-11.7 6.7c.2 0 .4-.1.7-.2l16.8-4.7-10.9-13.6c-.1-.2-.3-.4-.4-.5l5.5 12.3zm-21.2-65.3l2.8 13.2v-.7l.8-17.5-16.4 6.1-.6.3 13.4-1.4zm-68.7 0l13.4 1.4-.6-.3-16.4-6.1.8 17.5v.7l2.8-13.2zm-21.2 65.3l5.5-12.3c-.2.2-.3.3-.4.5l-10.9 13.7 16.8 4.7c.2.1.4.1.7.2l-11.7-6.8z"/><path fill="#fff" d="M174.7 12c-1.3-6.9-7.5-11.8-14.5-11.8h-15.7c-7.2 0-13.4 5.2-14.6 12.3-.9 5.2 0 10.7 2.7 15.4l19.7 31.5 19.8-31.4c2.8-4.9 3.7-10.6 2.6-16zm-22.3 35.2l-16.5-23.1c-2.3-3.5-3-7.5-2.3-11.3 1-5.2 6.2-9 12.2-9h13.2c5.8 0 11 3.6 12.1 8.6.9 4 .1 8.1-2.2 11.7l-16.5 23.1zm-39.6-22.7c-7-.8-13.5 3.5-15.7 10.1l-4.9 15c-2.2 6.8.8 14.3 7.2 17.7 4.7 2.5 10.2 3.3 15.5 2.2l36-9-23.8-28.5c-3.7-4.2-8.8-6.8-14.3-7.5zm26.6 32.1l-27.1 8.6c-4 1.1-8.1.6-11.5-1.3-4.7-2.6-6.7-8.7-4.8-14.4l4.1-12.6c1.8-5.6 6.8-9.4 12-8.9 4 .4 7.8 2.4 10.5 5.7l16.8 22.9zm-33.8 30.6c-3 6.4-.9 13.9 4.8 18l12.7 9.2c5.8 4.2 13.8 3.7 19-1.4 3.8-3.7 6.3-8.7 6.9-14.1l2.5-37-34.4 13.9c-5.1 2.3-9.2 6.4-11.5 11.4zm38.7-15.3l-.2 28.4c-.2 4.1-1.9 7.9-4.8 10.5-3.9 3.6-10.3 3.7-15.2.1l-10.7-7.8c-4.7-3.4-6.8-9.4-4.7-14.1 1.6-3.7 4.7-6.7 8.7-8.2l26.9-8.9zm18.7 41.6c5.1 4.8 13 5.1 18.6 1l12.7-9.2c5.8-4.2 7.8-12 4.6-18.5-2.3-4.8-6.3-8.7-11.3-10.9l-34.4-13.9 2.5 37c.6 5.6 3.3 10.7 7.3 14.5zm-2.6-41.6l27 9c3.9 1.5 6.9 4.3 8.5 7.8 2.2 4.8.3 11-4.6 14.5l-10.7 7.8c-4.7 3.4-11 3.6-14.9.1-3-2.7-4.9-6.5-5.1-10.8l-.2-28.4zm45.3-4.9c6.1-3.4 8.9-10.8 6.7-17.4l-4.9-15c-2.2-6.8-9-11.1-16.2-10.1-5.3.8-10.2 3.3-13.8 7.4l-23.8 28.5 36 9c5.5 1.2 11.2.3 16-2.4zm-40.4-10.4l16.9-22.9c2.6-3.2 6.2-5.2 10.1-5.7 5.3-.6 10.5 3.1 12.4 8.8l4.1 12.6c1.8 5.6 0 11.6-4.5 14.2-3.5 2.1-7.7 2.7-11.8 1.5l-27.2-8.5z"/></svg>