<svg xmlns="http://www.w3.org/2000/svg" viewBox="0 0 300 176.7" enable-background="new 0 0 300 176.7"><path fill="#fff" d="M12.4 155.5l7.9-15.3h4.5l-10.5 19.2v8.8h-3.8v-8.8l-10.5-19.3h4.5l7.9 15.4zm31.4 5c0 2.2-.1 6.4-5.4 7.7-1.5.3-2.7.5-3.9.5-1.2 0-2.4-.1-3.9-.5-5.2-1.2-5.4-5.2-5.4-7.7v-4.6c0-2.4.1-6.4 5.4-7.7 1.5-.3 2.7-.5 3.9-.5 1.2 0 2.4.1 3.9.5 5.2 1.2 5.4 5.4 5.4 7.7v4.6zm-3.9-4.7c-.1-4.2-2.1-5-5.6-5-3.7 0-5.6 1-5.6 5v4.6c0 4.1 2.2 5 5.6 5 3.7 0 5.6-1 5.6-5v-4.6zm13.3-6c2.4-.9 5.1-2.1 7.8-2.2v3.7c-1.5.1-5.2.5-7.7 1.4v15.5h-3.7v-20.1h3l.6 1.7zm24.3-1.7h5l-8.1 8.3 8.4 11.9h-4.5l-6.3-9.8-2.6 2.6v7.2h-3.7v-28h3.7v16.6h.1l3.9-4.5c.1-.1 4.1-4.3 4.1-4.3zm8.7 16c2.1.9 4.5 1.2 6.3 1.2 3 0 4.6-.5 4.6-2.4 0-1.5-1.2-2-2.6-2.7l-3.7-1.8c-3-1.4-4.1-2.7-4.1-5.6 0-3.5 2.6-5.1 8.3-5.1.9 0 3.3.1 5.1.7v3.3c-1.5-.5-4.3-.7-5.1-.7-3.1 0-4.5.6-4.5 2.1 0 1.4.7 1.6 2 2.2l4.2 2c2.7 1.2 4.3 3 4.3 5.7 0 4.1-3 5.6-8.4 5.6-2 0-4.1-.3-6.3-1v-3.5h-.1zm23.9 4.1h-3.7v-28h3.7v8.1c1-.3 2.6-.6 5.1-.6 1.2 0 2.4.1 3.7.5 5 1.2 5.1 5.2 5.1 7.7v12.4h-3.7v-12.4c0-4.1-1.5-5-5.1-5-2.1 0-4.1.1-5.1.6v16.7zm22.4-23.7c-1.5 0-2.2-.3-2.2-2.2v-.3c0-1.8.7-2.1 2.2-2.1s2.2.3 2.2 2.1v.3c0 1.8-.8 2.2-2.2 2.2zm-2 3.6h3.7v20.2h-3.7v-20.2zm14 1.7c2.4-.9 5.1-2.1 7.8-2.2v3.7c-1.5.1-5.2.5-7.7 1.4v15.5h-3.7v-20.1h3l.6 1.7zm15.1 9.2c0 4.1 1.2 5.6 3.6 6.2.7.1 1.6.3 2.7.3 2.1 0 4.5-.1 5.7-.5v3c-1.4.3-3.5.6-5.7.6-1.2 0-2.4-.1-3.6-.3-5.2-1.2-6.4-3.9-6.4-10 0-8.8 3.5-10.5 9.2-10.5s9 2.2 8.1 11.3c-.1-.1-13.6-.1-13.6-.1zm9.9-2.9c.3-4.1-.9-5.6-4.5-5.6s-5.1 1.4-5.2 5.6h9.7z"/><path fill="#B8306A" d="M178.6 168.2v-28h10.9c8.6.1 12.6 3.1 12.6 11.4v5.2c0 8.4-4.6 11.4-12.6 11.4h-10.9zm11-5c4.8 0 6.6-1.8 6.6-6.4v-5.2c0-5-2.2-6.4-6.6-6.4h-5v18.1c.1-.1 5-.1 5-.1zm20.9-17.4c-2.1 0-3.1-.5-3.1-2.9v-.3c0-2.4 1-2.9 3.1-2.9s3.1.5 3.1 2.9v.3c0 2.4-1 2.9-3.1 2.9zm-2.9 2.3h5.8v20.2h-5.8v-20.2zm18.7 20.5c-5-.1-7.9-2.6-7.9-8.3v-3.7c0-5 1.6-8.7 7.7-8.7 1.5 0 3.7.5 5.7 1.5l.3-1.2h4.6v17.6c0 3.9 0 8.6-6.6 10.2-3.1.7-6.7.7-9.2.7h-1.6v-4.7c3.6 0 7.5 0 9.4-.7 1.5-.5 2-1.8 2-3.3-1 .3-2.5.6-4.4.6zm4.7-15.8c-1-.3-2.4-.5-3.3-.5-2.7 0-3.5 1-3.5 3.6v4.2c0 2.9 1 3.6 3.5 3.6 1.4 0 2.2-.1 3.3-.5v-10.4zm14.4-7c-2.1 0-3.1-.5-3.1-2.9v-.3c0-2.4 1-2.9 3.1-2.9s3.1.5 3.1 2.9v.3c0 2.4-1 2.9-3.1 2.9zm-3 2.3h5.8v20.2h-5.8v-20.2zm24 20.1c-1.5.3-3 .5-4.1.5-4.1 0-6.9-2-7.1-6.3v-9.9h-2.9v-4.3h3l.9-5h4.8v5h5.2v4.3h-5.4v9.2c0 1.4.6 2.2 2 2.2.7 0 2 0 3.3-.1v4.5h.3zm3.7-12.2c0-2.4.1-6.6 5.6-7.8 1.4-.3 2.4-.5 3.7-.5 3 0 5.6.5 8.8 1.4v19.2h-4.6l-.3-1.2c-2 1-4.1 1.5-5.6 1.5-6 0-7.7-3.6-7.7-8.4v-4.2zm6.1 4.2c0 2.6.6 3.6 3.5 3.6.7 0 2.1-.3 3-.6v-10.7c-1-.1-2.2-.3-3-.3-3 0-3.5 1.4-3.5 3.9v4.1zm18-20.1h5.8v28h-5.8v-28zm-141.8-21.2l-10-9c.1.1.3.5.3.6l9.6 14.5 9.6-14.5c.1-.1.3-.5.3-.6-.1 0-9.8 9-9.8 9zm55.5-40.3l-11.7 6.7.6-.1 16.8-4.6-10.9-13.7-.5-.5 5.7 12.2zm-21.1-65.4l2.9 13.2v-.7l.7-17.4-16.4 6.1-.6.3 13.4-1.5zm-68.7 0l13.4 1.5-.6-.3-16.4-6.2.7 17.4v.7c0 .1 2.9-13.1 2.9-13.1zm-21.2 65.4l5.6-12.3-.5.5-11 13.6 16.8 4.6.6.1c0 .1-11.5-6.5-11.5-6.5z"/><path fill="#fff" d="M174.7 11.7c-1.3-6.9-7.4-11.7-14.3-11.7h-15.9c-7.2 0-13.4 5.1-14.5 12.3-.9 5.2 0 10.7 2.7 15.5l19.6 31.5 19.6-31.5c3-5 3.9-10.7 2.8-16.1zm-22.3 35.2l-16.5-23.1c-2.2-3.5-3-7.5-2.2-11.4 1-5.2 6.1-9 12.2-9h13.1c5.8 0 10.9 3.6 12.2 8.7.9 3.9.1 8.1-2.2 11.7-.1 0-16.6 23.1-16.6 23.1zm-39.6-22.6c-6.9-.9-13.5 3.5-15.6 10l-4.8 15c-2.2 6.7.7 14.3 7.2 17.7 4.6 2.4 10.2 3.3 15.6 2.1l36-9-23.8-28.5c-4-4.2-9.1-6.7-14.6-7.3zm26.6 32.1l-27.2 8.6c-4.1 1-8.1.6-11.5-1.4-4.6-2.6-6.6-8.7-4.8-14.4l4.1-12.6c1.8-5.6 6.7-9.3 12-8.8 4.1.5 7.8 2.4 10.5 5.7l16.9 22.9zm-33.8 30.6c-3 6.3-.9 13.9 4.8 18l12.8 9.3c5.8 4.2 13.8 3.6 19.1-1.4 3.7-3.7 6.3-8.7 6.9-14.1l2.6-37.1-34.5 13.8c-5.3 2.4-9.4 6.4-11.7 11.5zm38.7-15.3l-.1 28.4c-.1 4.2-2 7.8-4.8 10.5-3.9 3.6-10.3 3.6-15.1.1l-10.7-7.8c-4.8-3.5-6.7-9.3-4.8-14.1 1.6-3.7 4.6-6.6 8.7-8.3-.1 0 26.8-8.8 26.8-8.8zm18.8 41.5c5.1 4.8 13 5.1 18.6 1l12.8-9.3c5.8-4.2 7.8-12 4.5-18.5-2.4-4.8-6.3-8.7-11.3-10.9l-34.5-13.8 2.6 37.1c.5 5.6 3.2 10.7 7.3 14.4zm-2.7-41.6l27 9c3.9 1.5 6.9 4.2 8.6 7.8 2.2 4.8.3 10.9-4.6 14.5l-10.7 7.8c-4.8 3.5-10.9 3.6-14.9.1-3-2.7-5-6.4-5.1-10.8 0 .1-.3-28.4-.3-28.4zm45.2-4.9c6.2-3.5 8.8-10.8 6.7-17.4l-4.8-15c-2.2-6.7-9-11.1-16.2-10-5.2.7-10.2 3.3-13.8 7.3l-23.8 28.5 36 9c5.4 1.2 11.1.4 15.9-2.4zm-40.3-10.3l16.8-22.8c2.6-3.3 6.2-5.2 10-5.7 5.2-.6 10.5 3.1 12.3 8.8l4.1 12.6c1.8 5.6 0 11.5-4.5 14.3-3.5 2.1-7.7 2.7-11.9 1.5l-26.8-8.7z"/></svg>